<svg width="700" height="510" xmlns="http://www.w3.org/2000/svg">
 <metadata id="metadata7">image/svg+xmlThe holy quraanThe holy quraan blessed glorious islam islamic muslim religion religious</metadata>

 <g>
  <title>background</title>
  <rect x="-1" y="-1" width="702" height="512" id="canvas_background" fill="none"/>
 </g>
 <g>
  <title>Layer 1</title>
  <g id="layer1" stroke="null">
   <path d="m330.66345,491.12291c-16.64223,-5.75897 -25.35541,-27.41694 -19.11969,-47.5251c3.46785,-11.18267 0.48311,-13.00477 -10.40075,-6.34933c-3.36144,2.05549 -17.96328,7.3146 -32.44853,11.68687c-35.8198,10.81195 -69.47898,11.23528 -89.73509,1.12859c-25.8876,-12.91652 -35.17495,-35.16428 -28.3821,-67.98911c1.97495,-9.54348 4.51115,-19.5652 5.63595,-22.27047c1.12864,-2.7144 -4.36952,0.29384 -12.26877,6.71269c-15.41103,12.52289 -25.69599,16.17564 -37.87934,13.45302c-22.17968,-4.9565 -27.62428,-42.72855 -11.10502,-77.04178c5.48543,-11.39416 5.48168,-11.92247 -0.12843,-18.09118c-17.01854,-18.71307 -14.44041,-43.56325 8.1874,-78.91717c15.38606,-24.03932 16.2073,-25.03941 18.72278,-22.79969c0.97508,0.86822 -1.72546,6.51281 -6.00123,12.54356c-9.32243,13.14881 -22.10328,39.83668 -25.14279,52.50099c-3.3511,13.96254 3.11722,25.33659 14.40865,25.33659c4.99033,0 13.2639,-1.9295 18.38576,-4.28774c9.22795,-4.24887 41.19155,-28.48197 74.03792,-56.13164l17.04147,-14.34529l-10.84457,-8.04946c-5.96451,-4.42722 -24.76828,-16.50515 -41.78617,-26.83985c-34.0904,-20.70265 -38.72961,-26.73041 -33.91884,-44.07137c2.69351,-9.70906 4.95777,-11.35678 33.072,-24.06661l30.18053,-13.64395l-6.46944,-6.13149c-4.92402,-4.66682 -5.97966,-8.11694 -4.41916,-14.44301c1.12765,-4.57134 3.71024,-9.53816 5.73907,-11.03737c11.86619,-8.76851 133.57358,-47.04992 137.75326,-43.32842c3.36188,2.99331 -3.75609,6.09563 -38.04238,16.58041c-37.9963,11.61931 -94.72526,31.50833 -98.51014,34.53743c-1.35204,1.08205 0.04226,6.19655 3.09845,11.36553c3.05619,5.16898 5.74489,9.77263 5.97492,10.23034c0.23003,0.45768 19.0531,-4.78537 41.82905,-11.65125c53.74934,-16.2029 123.14498,-31.94218 140.83532,-31.94218c10.83001,0 15.72165,1.57695 21.86845,7.04992c6.72729,5.98983 7.59867,8.58251 5.79512,17.24244c-2.46193,11.821 -12.89794,24.94537 -30.78851,38.71973c-6.95279,5.35313 -22.241,18.5048 -33.97377,29.22593l-21.33229,19.49298l7.89884,-13.79395c9.4749,-16.54626 22.01156,-28.76452 47.93417,-46.7168c10.65092,-7.37612 19.3653,-15.09017 19.3653,-17.14235c0,-8.20848 -12.04351,-14.76645 -27.11142,-14.76281c-30.69202,0.00748 -121.15807,23.78262 -188.23073,49.46847c-49.10086,18.80347 -50.11684,19.82218 -29.18679,29.26558c19.76742,8.91884 79.63189,41.49965 87.23188,47.47533c4.84774,3.81165 6.9272,3.64778 21.3277,-1.68077c8.77592,-3.24732 18.02432,-5.9042 20.55195,-5.9042c3.4192,0 4.09795,-1.94216 2.65134,-7.58667c-1.0694,-4.17267 -3.88545,-18.13904 -6.2579,-31.03639c-2.37245,-12.89734 -5.12437,-26.55335 -6.11538,-30.34669c-0.99101,-3.79334 -0.72876,-11.20552 0.58276,-16.47149l2.3846,-9.57449l11.51083,16.38517c12.24711,17.43324 15.39315,26.9992 6.78827,20.64063c-7.54946,-5.57866 -8.9982,-1.06114 -5.31495,16.57338c5.00102,23.94376 9.72829,30.88385 26.33188,38.65777c15.80165,7.39844 19.14748,12.1507 16.11896,22.89459c-1.84482,6.54454 -2.27628,6.65279 -11.02583,2.76643c-10.57023,-4.69507 -39.59708,-5.59866 -47.84401,-1.48939c-5.02937,2.50603 -3.99347,3.85116 9.30625,12.08416c8.23109,5.09532 31.84018,20.04534 52.46469,33.22223c36.70574,23.45112 37.52109,23.80436 38.53875,16.69573c0.57182,-3.99426 -0.48553,-34.38415 -2.34971,-67.53311c-2.8475,-50.63522 -2.69472,-61.45133 0.95578,-67.6548l4.3452,-7.38398l5.22671,10.95664c18.13478,38.01527 20.64127,50.03791 7.68595,36.86624l-6.48973,-6.59809l1.81464,42.76125c0.99807,23.51868 2.68939,50.586 3.75848,60.1496c1.87137,16.74017 2.38466,17.58861 13.76954,22.76002c14.10259,6.40591 24.03132,6.76025 38.50888,1.37426c10.44078,-3.88424 10.74505,-4.43329 10.74505,-19.38999c0,-8.46593 -1.99676,-33.04801 -4.43726,-54.62688c-2.44052,-21.57887 -6.01963,-59.09759 -7.95359,-83.37494c-1.93399,-24.27735 -4.75497,-55.06843 -6.26887,-68.42461c-1.87118,-16.50808 -1.67809,-26.66699 0.60305,-31.72609c3.27181,-7.25617 3.6531,-6.89068 15.26104,14.62821c6.54798,12.13868 11.89702,24.55323 11.88676,27.5879c-0.0162,4.80035 -1.0447,4.44173 -7.91214,-2.75879l-7.89348,-8.27637l1.78164,17.93214c0.97992,9.86267 5.35127,53.57167 9.71416,97.13109c10.07715,100.61081 7.59219,119.06543 -17.59383,130.66187c-9.62412,4.43128 -26.67761,4.3265 -42.5377,-0.26131c-6.23048,-1.80226 -7.06722,-1.33735 -5.6028,3.1131c0.94682,2.8775 2.63975,18.88781 3.76204,35.57849c2.11234,31.41456 -1.55149,66.10488 -8.60833,81.50652c-3.41102,7.44459 -3.91579,3.27557 -3.91579,-32.34196c0,-22.4885 -1.18085,-54.24639 -2.62414,-70.5731l-2.62414,-29.68491l-21.14719,-14.45573c-11.63096,-7.95064 -35.19896,-24.1491 -52.37332,-35.99653c-17.17439,-11.84743 -31.22613,-20.82917 -31.22613,-19.95943c0,0.86974 4.48169,8.65195 9.95931,17.29378c7.62417,12.02835 9.94029,18.97217 9.87822,29.6152c-0.15359,26.33941 -13.27549,38.65269 -49.92651,46.84991c-24.26863,5.42781 -52.00113,17.5131 -65.0025,28.32684c-17.46363,14.52514 -21.18877,53.69218 -7.04463,74.0691c15.73274,22.66558 63.00276,28.73672 107.83712,13.85012c39.92409,-13.25623 74.85863,-33.79234 74.85863,-44.00532c0,-3.44429 -5.69207,-19.71142 -12.64901,-36.14917c-10.04334,-23.7302 -12.21523,-31.93035 -10.54328,-39.80699l2.10577,-9.92017l13.57799,13.79395c15.01359,15.25241 16.79371,19.17668 7.50853,16.55274c-7.06266,-1.99587 -7.65549,0.49962 -2.74262,11.54526c15.86973,35.68007 13.38979,54.52073 -9.70846,73.75799c-16.0873,13.3982 -21.58416,24.74615 -21.61456,44.62199c-0.01896,12.38884 6.899,20.42881 17.57787,20.42881c9.93691,0 30.30069,-14.81685 50.54031,-36.77354c22.22151,-24.10669 36.56408,-33.57723 69.74548,-46.05361c13.63317,-5.12614 25.99899,-10.21177 27.47961,-11.30144c1.48059,-1.08964 2.99635,-10.46177 3.36835,-20.82696c0.74691,-20.81124 6.81092,-34.21782 18.5839,-41.08616c5.73445,-3.34547 8.93292,-3.665 13.74298,-1.37294c5.81303,2.77002 12.67962,17.85823 12.71984,27.94977c0.0418,10.48368 -10.60751,32.10103 -19.11684,38.80594l-9.23678,7.2781l7.02359,5.82615c8.82677,7.32191 15.89182,7.3343 32.77461,0.05738c8.49402,-3.66111 14.05199,-8.13907 15.21264,-12.2565c1.00585,-3.56825 0.30991,-29.21542 -1.5465,-56.99371c-3.01364,-45.09493 -14.84488,-210.84693 -16.30639,-228.44792c-0.31496,-3.79334 0.51924,-11.09698 1.85383,-16.23035c2.89178,-11.12303 4.00381,-9.93815 17.42639,18.56771c10.22252,21.70983 10.11891,27.29365 -0.30941,16.67529l-6.48,-6.59809l1.71657,20.69093c0.9441,11.38001 3.1989,40.55421 5.01069,64.83157c1.81179,24.27735 3.90476,47.24428 4.65105,51.03762c3.9912,20.28685 5.10565,115.63344 1.53169,131.04253c-6.03547,26.02179 -24.62653,42.76125 -47.49125,42.76125c-8.11245,0 -18.93294,-9.08406 -22.18142,-18.62183c-2.82039,-8.28089 -6.08935,-7.92686 -36.29293,3.93048c-33.89049,13.30473 -54.25851,26.96494 -75.42515,50.58534c-23.37026,26.07942 -35.60037,32.59811 -51.09778,27.2353l0.00003,-0.00009zm179.75663,-117.38398c8.25755,-6.18659 9.52026,-8.67827 7.94706,-15.68201c-2.86374,-12.74909 -10.35907,-18.87578 -18.45365,-15.08402c-9.58582,4.49034 -11.33645,8.0091 -9.35818,18.80976c4.08267,22.29006 5.18566,22.95391 19.86477,11.95626l0,0.00001zm-382.36277,-16.40545c6.62836,-3.96438 21.12655,-14.96473 32.21819,-24.4452c24.05685,-20.56231 42.10869,-29.17473 81.5937,-38.92774c28.31046,-6.99284 42.31752,-14.04944 42.31752,-21.3191c0,-6.80947 -22.92337,-37.67354 -37.42969,-50.39545l-14.87596,-13.04604l-8.70472,5.03901c-4.7876,2.77145 -23.42411,17.22536 -41.41451,32.11979c-40.87467,33.84059 -54.54704,43.08858 -66.90448,45.25417c-8.60216,1.50749 -10.57739,3.70806 -16.65952,18.56026c-8.02201,19.58931 -9.63314,43.10449 -3.4117,49.79514c6.19191,6.65886 19.49361,5.60545 33.27117,-2.63484zm12.56799,-33.25429c-3.74522,-3.33466 -2.15209,-22.13184 2.76354,-32.60694c2.65605,-5.65999 5.46297,-9.72658 6.23758,-9.03689c0.77461,0.6897 -0.86574,6.10007 -3.6452,12.02306c-2.77946,5.92298 -4.83417,11.25459 -4.566,11.84804c0.26817,0.59347 2.01037,3.61048 3.87154,6.70449c3.28538,5.46155 3.50751,5.47504 7.62379,0.46279c5.18606,-6.3149 5.46163,-3.99658 0.64398,5.41788c-3.49564,6.83107 -8.72631,8.92976 -12.92924,5.18757l0.00001,0zm55.2071,-48.1165c-5.08573,-3.43574 -9.70679,-6.52879 -10.26897,-6.87347c-1.97988,-1.21384 9.51958,-14.89937 12.5194,-14.89937c1.67112,0 6.96584,2.49003 11.76608,5.53339l8.72768,5.53339l6.09387,-7.44848c5.9968,-7.32983 6.22587,-7.37149 14.38089,-2.61384c11.19612,6.53177 12.65285,11.24188 5.93086,19.17651l-5.65857,6.67936l-10.00089,-6.79184l-10.00089,-6.79187l-7.12135,7.37149l-7.12135,7.37149l-9.24676,-6.24676zm205.50957,210.91904c8.14474,-10.44977 9.0132,-18.09521 1.77457,-15.62195c-4.26582,1.45747 -4.47927,0.83128 -1.44022,-4.22478c7.44253,-12.38203 15.94226,-3.13065 9.61653,10.46696c-2.05393,4.41506 -6.65925,10.28965 -10.23402,13.0547c-6.31888,4.88756 -6.31101,4.78542 0.28314,-3.67493zm54.71181,-15.23026c-4.19211,-7.80892 -8.84799,-12.25548 -13.94302,-13.31624c-8.78996,-1.82999 -13.30607,-16.54766 -5.07761,-16.54766c4.81595,0 23.76513,17.67435 23.76513,22.16633c0,1.46453 1.3943,2.66278 3.09845,2.66278c1.70415,0 3.10365,-2.79327 3.11004,-6.20728c0.01255,-6.72066 10.70319,-24.13941 14.81542,-24.13941c4.95436,0 9.96058,6.73183 9.96058,13.3939c0,6.62441 -0.13739,6.66209 -6.27011,1.72046c-8.00078,-6.44688 -10.6955,-3.99183 -17.65198,16.08192l-5.51316,15.90892l-6.29372,-11.72373l-0.00002,0.00001zm-331.69307,-57.01117c6.28207,-10.81642 6.23718,-16.99337 -0.12344,-16.99337c-4.11722,0 -4.32894,-0.74898 -1.16985,-4.13819c4.41296,-4.73441 11.14081,-5.41642 13.92096,-1.4112c2.28151,3.28693 -8.60111,26.07167 -13.82577,28.94671c-2.25434,1.24055 -1.78514,-1.26736 1.19811,-6.40395l-0.00001,0zm75.73779,-10.7861c-2.43848,-5.48114 -2.42987,-11.74525 0.03098,-22.57079c1.87341,-8.24128 2.78916,-15.53356 2.03497,-16.20505c-0.75416,-0.67152 -6.31083,1.37402 -12.34809,4.54563c-8.3373,4.37986 -10.97687,4.84366 -10.97687,1.92873c0,-2.11081 12.85184,-10.44875 28.55967,-18.52881c34.82551,-17.91409 33.84767,-17.53879 31.49917,-12.08957c-1.05288,2.44299 -7.8058,7.51596 -15.00644,11.27324c-9.8535,5.1415 -13.97927,9.46786 -16.67845,17.48938c-4.5149,13.4174 -4.53669,21.21407 -0.08003,28.62852c3.39547,5.64901 3.6403,5.67022 7.74612,0.67074c5.00055,-6.08901 5.38563,-4.39188 1.21803,5.36808c-3.95833,9.26987 -11.75874,9.02116 -15.99905,-0.5101l-0.00001,0zm54.75819,-21.05903c-8.34682,-5.94547 -8.85047,-7.20988 -5.48872,-13.77933c4.37327,-8.5461 8.84579,-8.98146 19.23622,-1.8725c6.57367,4.4976 7.23063,6.30938 4.64767,12.81748c-4.00812,10.09905 -7.45146,10.62962 -18.39518,2.83435l0.00001,0zm44.63262,-2.01651c-4.20822,-7.00117 -1.473,-25.75879 5.18373,-35.54875l4.68963,-6.89698l-1.864,6.89698c-5.01468,18.55482 -5.32623,24.99414 -1.41237,29.19307c3.7481,4.02113 4.46762,3.97663 8.14728,-0.50395c4.80693,-5.85324 5.13537,-4.03481 1.01431,5.61615c-3.66695,8.58753 -10.99661,9.16589 -15.75858,1.24347l0,0.00001zm118.13695,-8.30401c1.71062,-2.84594 4.67156,-5.17441 6.57986,-5.17441c1.9083,0 0.97834,-2.4511 -2.0666,-5.4469c-5.17441,-5.09088 -5.20298,-5.89978 -0.43707,-12.37613c6.83741,-9.2913 19.32202,-16.277 25.38655,-14.20495c7.54894,2.57925 3.2288,8.67419 -5.5592,7.84302c-4.27564,-0.40438 -9.57777,1.20007 -11.78253,3.56541c-6.5434,7.01999 1.07281,10.84723 20.17006,10.13568c14.01025,-0.52199 16.60799,0.08759 15.1169,3.54739c-0.99026,2.29774 -4.7885,4.20715 -8.44051,4.24318c-3.65199,0.036 -14.61349,2.9852 -24.35882,6.55378c-16.29465,5.96682 -17.46883,6.07243 -14.60863,1.31393l-0.00001,0zm172.80914,-26.49614c0.57836,-17.51222 -1.23727,-64.88169 -4.03474,-105.26547c-6.49497,-93.76079 -6.82508,-107.17736 -2.72679,-110.82639c2.41193,-2.14752 6.54414,3.78649 14.66502,21.05961c11.57707,24.62435 12.26053,32.62261 1.74653,20.43866l-5.91608,-6.85576l-0.04431,11.03516c-0.02438,6.06934 2.01635,35.86427 4.53492,66.21096c5.89247,70.9992 5.87676,101.58461 -0.06123,119.38813c-2.6005,7.79689 -5.73768,14.73401 -6.97151,15.41584c-1.23383,0.68181 -1.77014,-13.08853 -1.19182,-30.60075l0.00001,0.00001zm-340.22053,-2.65487c0.06107,-1.22755 10.41206,-9.52392 23.0022,-18.43639c12.59014,-8.91246 27.49148,-20.4305 33.11408,-25.59564c8.85936,-8.13851 9.71742,-10.11188 6.43306,-14.79448c-5.08003,-7.24268 -4.78397,-15.10316 0.72206,-19.17185c6.31867,-4.66917 10.98028,-1.19806 10.98028,8.17609c0,4.3729 1.3943,8.718 3.09845,9.65577c5.5852,3.07346 3.55051,10.15533 -2.432,8.46471c-3.89577,-1.10092 -7.14282,0.86739 -10.98533,6.65917c-6.90895,10.4138 -64.21884,50.79034 -63.93279,45.04263l-0.00001,-0.00001zm69.60401,-69.82227c-1.05322,-1.51733 -3.22697,-2.75879 -4.83054,-2.75879c-1.60357,0 -2.91558,1.24146 -2.91558,2.75879c0,1.51733 2.17375,2.75879 4.83054,2.75879c2.6568,0 3.9688,-1.24146 2.91558,-2.75879zm137.10634,49.16332c9.96098,-4.43939 8.60978,-8.6218 -2.32384,-7.19299c-10.42712,1.36259 -12.28045,-1.7307 -3.53406,-5.89849c6.03469,-2.87562 28.32165,-0.92044 28.32165,2.48459c0,3.82945 -10.96352,10.38218 -20.13991,12.03732c-8.4855,1.53052 -8.68796,1.40591 -2.32384,-1.43043zm-391.47351,-19.99759c9.35651,-14.21549 9.61173,-15.37178 3.39286,-15.37178c-5.90431,0 -5.96848,-3.86598 -0.13574,-8.17609c5.47781,-4.04781 10.98031,-1.52213 10.98031,5.04001c0,5.025 -17.03514,30.72398 -20.3661,30.72398c-1.05152,0 1.70638,-5.49725 6.12867,-12.21612zm420.68649,-2.43375l-6.8837,-6.52412l6.63774,-7.51351l6.63777,-7.51351l7.37251,6.16683l7.37248,6.16686l7.88536,-6.59585c8.36798,-6.99955 14.46449,-5.93736 21.29982,3.71099c2.5226,3.56077 1.75443,5.94795 -3.38707,10.5258l-6.64955,5.92061l-9.03972,-5.73122l-9.03975,-5.73125l-7.66107,6.82127l-7.6611,6.82125l-6.88373,-6.52415l0.00001,0zm9.59645,-53.33657c-0.38269,-14.62542 -1.52186,-27.32717 -2.53149,-28.22612c-1.0096,-0.89895 -7.31943,1.17563 -14.02181,4.61019c-16.82959,8.62409 -15.37871,3.74376 1.75171,-5.89228c10.88324,-6.12195 13.63246,-9.13648 12.57995,-13.79395c-0.74078,-3.27799 -2.18323,-19.61599 -3.20544,-36.30667c-1.02221,-16.69068 -3.19304,-48.15609 -4.82407,-69.92311c-2.77491,-37.03311 -1.94586,-52.8849 2.76211,-52.81246c2.02979,0.03123 16.42199,28.88536 20.62566,41.35126c2.31739,6.87215 2.3019,6.87799 -4.30192,1.6262c-3.64523,-2.89891 -7.14168,-4.76109 -7.76992,-4.13819c-0.62824,0.62293 0.03975,13.54715 1.48444,28.72049c1.44468,15.17335 3.47869,39.38173 4.52002,53.79641c2.44976,33.91116 2.93039,35.20211 10.75769,28.89504c5.52221,-4.44971 5.67537,-5.43575 1.48465,-9.55882c-2.57004,-2.52854 -4.67277,-6.47971 -4.67277,-8.7804c0,-5.52699 11.12169,-14.34025 15.23792,-12.07517c3.95489,2.17633 3.67814,29.10725 -0.29909,29.10725c-1.56326,0 -6.2171,3.414 -10.34185,7.58667c-6.30382,6.37703 -7.51522,10.52227 -7.59752,25.99804c-0.09661,18.16867 -5.66781,46.4263 -9.1508,46.41375c-0.98543,-0.00353 -2.10478,-11.97271 -2.48747,-26.59813zm28.15309,-71.33246c-1.88572,-4.37539 -7.31739,-5.7406 -7.31739,-1.8392c0,2.91748 3.38688,5.97739 6.61605,5.97739c1.36663,0 1.68224,-1.86218 0.70133,-4.13819l0.00001,0zm90.08026,92.12632c-5.84343,-8.41839 3.47395,-49.36507 11.23299,-49.36507c1.43579,0 -0.07929,5.27619 -3.36684,11.72486c-6.66479,13.0733 -7.51027,20.73675 -2.96757,26.8982c2.71201,3.67838 3.39001,3.67838 6.10202,0c3.92009,-5.31699 3.9758,-2.30276 0.12412,6.71738c-3.19732,7.48774 -7.61227,9.08494 -11.12473,4.02463l0.00001,0zm-202.82157,-17.81858c-1.66198,-3.8921 -3.02176,-8.19063 -3.02176,-9.55228c0,-4.61661 12.98947,-33.4186 14.47499,-32.0959c0.81179,0.7228 -0.96033,7.42186 -3.9381,14.88682c-5.79531,14.52837 -4.23815,24.41695 3.43224,21.79621c5.5509,-1.89659 6.16576,4.04571 0.90341,8.73118c-5.59112,4.97821 -8.51348,4.04955 -11.85079,-3.76602l0.00001,-0.00001zm-71.09842,-20.36293c-3.7345,-6.21304 3.51234,-29.09657 11.40464,-36.01267c4.22253,-3.70025 4.32007,-3.4406 0.92173,2.45364c-7.14477,12.39221 -9.38157,23.12037 -5.65427,27.11918c2.87214,3.08132 4.01512,3.12165 6.08616,0.21474c1.96829,-2.76274 2.56071,-2.60375 2.59734,0.69706c0.0497,4.47865 -5.6982,10.89722 -9.75859,10.89722c-1.30336,0 -3.822,-2.41615 -5.59701,-5.36918l0,0.00001zm-193.79675,-3.97349c-4.70527,-6.39394 -4.72417,-8.12822 -0.23527,-21.56524c2.68484,-8.03666 6.26705,-16.47431 7.9605,-18.75031c4.1095,-5.52324 3.91012,-3.73623 -1.28322,11.50026c-6.07742,17.83028 -2.39928,29.36525 6.76249,21.20781c2.66073,-2.36906 3.11815,-1.70358 1.8341,2.66841c-3.12026,10.62382 -9.34963,12.66972 -15.0386,4.93906l0,0.00001zm-88.25124,-15.17781c0,-1.39873 6.53497,-5.95306 14.52212,-10.1207c7.98718,-4.16768 20.56611,-12.53801 27.95315,-18.60073c12.9174,-10.60159 13.22501,-11.22582 8.04441,-16.32279c-4.87844,-4.79972 -4.94782,-5.99579 -0.73523,-12.6783c2.55826,-4.05826 7.04352,-7.78881 9.96718,-8.29014c4.20788,-0.72153 5.31579,1.10917 5.31579,8.78374c0,5.33238 1.3943,10.46249 3.09845,11.40026c5.01109,2.75752 3.57205,10.14683 -1.78551,9.16834c-2.6862,-0.49057 -11.68803,4.95644 -20.00408,12.10452c-14.93505,12.83742 -46.37627,29.48526 -46.37627,24.5558l-0.00001,0zm57.64406,-57.49605c-3.14963,-2.80434 -5.7484,1.41771 -3.1642,5.14067c1.95212,2.81237 2.68195,2.81455 3.73146,0.01115c0.7176,-1.91678 0.46232,-4.23507 -0.56726,-5.15182zm-33.88252,19.49c-3.21049,-2.85855 -2.44387,-16.94832 1.02605,-18.85776c1.77138,-0.97476 3.09845,1.46334 3.09845,5.69257c0,6.26284 0.71292,6.87077 4.64767,3.96319c2.55622,-1.88892 4.64767,-2.23332 4.64767,-0.76537c0,3.93961 -11.00752,12.11525 -13.41984,9.96737zm143.63114,-20.07279c-3.66072,-7.86892 -15.56871,-19.6689 -15.56871,-15.42748c0,1.1796 -2.09145,0.59929 -4.64767,-1.28962c-6.20616,-4.58602 -5.96801,-13.79395 0.35672,-13.79395c2.75241,0 9.59723,4.46452 15.21069,9.92119l10.20629,9.92119l3.58847,-15.39065c3.99669,-17.14152 8.34208,-21.48311 14.27334,-14.26082c4.75144,5.78565 2.2663,14.53891 -2.83756,9.99454c-6.07324,-5.40748 -7.44985,-3.06802 -9.59373,16.30387c-2.40728,21.75215 -5.53485,25.74329 -10.98784,14.02174l0,-0.00001zm179.80007,-16.44002c-3.66069,-6.09028 -0.63558,-23.10037 5.73129,-32.22661c3.28916,-4.71469 3.43863,-4.53926 1.36567,1.60283c-4.30021,12.7412 -3.10793,23.48271 2.56434,23.10249c3.98448,-0.26711 4.63134,0.97363 2.80252,5.3755c-3.28119,7.89762 -8.46961,8.79086 -12.46382,2.14579zm56.1515,-0.89448c-4.70667,-4.19071 -4.28026,-14.80295 1.08365,-26.97051l4.25662,-9.65577l-1.77092,11.6192c-2.1375,14.02423 0.8016,23.60308 5.29925,17.27077c2.46791,-3.47459 2.89119,-3.41262 2.93178,0.42924c0.07126,6.74635 -7.30218,11.31217 -11.80038,7.30707zm-139.96348,-29.7082c-2.55414,-4.24934 -1.7988,-8.61137 3.32903,-19.22466c3.64805,-7.55053 8.57145,-15.16077 10.9409,-16.91166c6.06989,-4.48532 5.39641,-2.01825 -3.07338,11.25846c-7.86445,12.32782 -7.85537,24.87441 0.01379,19.05951c5.07318,-3.74881 5.49181,-1.39162 1.06178,5.9786c-4.10185,6.82417 -8.10535,6.77189 -12.27212,-0.16026l0,0.00001zm-190.07772,-4.64302c-3.71457,-3.3074 -2.11342,-20.35261 2.68849,-28.62057c6.83019,-11.76023 8.45173,-9.99827 2.65989,2.89019c-4.98268,11.08777 -3.92546,21.14792 1.88634,17.94979c1.71617,-0.94439 3.12032,-0.55438 3.12032,0.86673c0,3.74205 -7.95331,9.05231 -10.35505,6.91386l0.00001,0zm249.71017,-78.96783c12.93156,-4.54974 10.24784,-8.37941 -4.64767,-6.63227l-13.16841,1.54456l7.31475,-5.3195c10.70247,-7.78313 31.41585,-6.59514 31.41585,1.80179c0,4.43139 -15.82043,12.31985 -23.85911,11.89676c-3.89069,-0.20478 -3.00066,-1.19963 2.94458,-3.29135l0.00001,0.00001z" id="path2396" fill="#336e6a" stroke="null"/>
  </g>
 </g>
</svg>